<?xml version="1.0" encoding="UTF-8"?>
<!DOCTYPE svg PUBLIC "-//W3C//DTD SVG 1.1//EN" "http://www.w3.org/Graphics/SVG/1.1/DTD/svg11.dtd">
<!-- Creator: CorelDRAW -->
<svg xmlns="http://www.w3.org/2000/svg" xml:space="preserve" width="2048px" height="2048px" style="shape-rendering:geometricPrecision; text-rendering:geometricPrecision; image-rendering:optimizeQuality; fill-rule:evenodd; clip-rule:evenodd"
viewBox="0 0 2048 2048"
 xmlns:xlink="http://www.w3.org/1999/xlink">
 <defs>
  <style type="text/css">
   <![CDATA[
    .fil1 {fill:none}
    .fil0 {fill:#9D976A}
   ]]>
  </style>
 </defs>
 <g id="Layer_x0020_1">
  <metadata id="CorelCorpID_0Corel-Layer"/>
  <g id="_401370896">
   <g>
    <rect id="_359663296" class="fil0" x="437.416" y="734.247" width="215.12" height="981.21"/>
    <path id="_359663584" class="fil0" d="M365.672 793.515l358.609 0 51.5233 -48.0178 17.3043 -85.441 -496.264 0 17.3032 85.441 51.5244 48.0178zm434.061 -166.167l34.2201 -168.97 -130.738 0 -12.2953 168.97 108.813 0zm29.8358 -201.678l-43.8272 -93.1253 -481.532 0 -43.8272 93.1253 569.187 0zm-573.57 32.7083l34.2201 168.97 104.126 0 -12.2953 -168.97 -126.051 0zm158.797 0l12.2965 168.97 99.1867 0 0 -168.97 -111.483 0zm144.191 0l0 168.97 99.1855 0 12.2965 -168.97 -111.482 0z"/>
   </g>
   <g>
    <path id="_359663776" class="fil0" d="M685.19 1254.49l1106.81 0 0 137.307 -1106.81 0 0 -137.307zm1106.81 170.014l0 151.676 -121.709 0 0 -151.676 121.709 0zm-154.417 151.676l-105.722 0 0 -151.676 105.722 0 0 151.676zm-138.429 0l-105.723 0 0 -151.676 105.723 0 0 151.676zm-138.431 0l-105.719 0 0 -151.676 105.719 0 0 151.676zm-138.428 0l-105.723 0 0 -151.676 105.723 0 0 151.676zm-138.43 0l-105.722 0 0 -151.676 105.722 0 0 151.676zm-138.43 0l-105.722 0 0 -151.676 105.722 0 0 151.676zm-138.429 0l-121.817 0 0 -151.676 121.817 0 0 151.676zm984.994 32.7083l0 106.573 -121.709 0 0 -106.573 121.709 0zm-154.417 106.573l-105.722 0 0 -106.573 105.722 0 0 106.573zm-138.429 0l-105.723 0 0 -106.573 105.723 0 0 106.573zm-138.431 0l-105.719 0 0 -106.573 105.719 0 0 106.573zm-138.428 0l-105.723 0 0 -106.573 105.723 0 0 106.573zm-138.43 0l-105.722 0 0 -106.573 105.722 0 0 106.573zm-138.43 0l-105.722 0 0 -106.573 105.722 0 0 106.573zm-138.429 0l-121.817 0 0 -106.573 121.817 0 0 106.573z"/>
    <g>
     <polygon id="_359663560" class="fil0" points="813.628,1100.83 1238.59,952.863 1663.56,1100.83 "/>
     <rect id="_359606120" class="fil0" x="957.022" y="1078.3" width="562.985" height="211.968"/>
    </g>
   </g>
  </g>
 </g>
 <rect class="fil1" width="2048" height="2048"/>
</svg>
