<?xml version="1.0" encoding="UTF-8"?>
<!DOCTYPE svg PUBLIC "-//W3C//DTD SVG 1.1//EN" "http://www.w3.org/Graphics/SVG/1.1/DTD/svg11.dtd">
<!-- Creator: CorelDRAW -->
<svg xmlns="http://www.w3.org/2000/svg" xml:space="preserve" width="2048px" height="2048px" style="shape-rendering:geometricPrecision; text-rendering:geometricPrecision; image-rendering:optimizeQuality; fill-rule:evenodd; clip-rule:evenodd"
viewBox="0 0 2048 2048"
 xmlns:xlink="http://www.w3.org/1999/xlink">
 <defs>
  <style type="text/css">
   <![CDATA[
    .fil2 {fill:none}
    .fil0 {fill:#9D976A}
    .fil1 {fill:#9D976A;fill-rule:nonzero}
   ]]>
  </style>
 </defs>
 <g id="Layer_x0020_1">
  <metadata id="CorelCorpID_0Corel-Layer"/>
  <g id="_272776912">
   <path id="_361490224" class="fil0" d="M1157 1020.43c2.11417,0.11811 4.22126,0.258662 6.32953,0.390945l42.4217 190.82 -71.8004 36.1677 -0.0177165 -0.0366142c-4.46929,2.25118 -7.46812,6.26339 -8.57717,10.7693l-84.9001 281.433 0 -470.67c37.7551,-4.1563 78.5516,-22.0689 116.544,-48.8752zm-149.457 519.535l-84.8977 -281.425c-1.10906,-4.50591 -4.10788,-8.51812 -8.57717,-10.7693l-0.0177165 0.0366142 -71.7638 -36.1453 42.9378 -190.837c1.93937,-0.125197 3.8752,-0.259843 5.8252,-0.370866 37.9796,26.7898 78.7548,44.6941 116.493,48.8504l0 470.66zm32.9126 113.802l114.581 -379.819 75.8044 -38.1851c7.24489,-2.99882 11.511,-10.8532 9.75119,-18.7713l-0.0637796 0.0153543 -42.9815 -193.337c215.074,22.3984 390.872,126.85 370.696,313.121l40.0441 455.209 -278.364 0 -16.4575 -320.582 -16.4563 320.582 -256.555 0 0 -138.233zm-32.9126 138.233l-256.556 0 -16.4563 -320.582 -16.4575 320.582 -278.362 0 40.0441 -455.209c16.3795,-186.199 163.886,-290.411 371.171,-313.011l-43.4634 193.184 -0.0496063 -0.0106299c-1.7811,7.92402 2.4815,15.802 9.73702,18.8079l75.8138 38.1862 114.579 379.816 0 138.238z"/>
   <path id="_361490104" class="fil1" d="M709.511 1058.61c16.7575,-6.95788 24.7004,-26.1851 17.7425,-42.9426 -6.95906,-16.7563 -26.1851,-24.7004 -42.9426,-17.7414l-146.801 61.0571c-16.7575,6.95788 -24.7004,26.1851 -17.7425,42.9414 6.95906,16.7575 26.1851,24.7004 42.9426,17.7425l146.801 -61.0571z"/>
   <path id="_361490008" class="fil1" d="M1363.69 997.93c-16.7575,-6.95906 -35.9835,0.98504 -42.9426,17.7414 -6.95788,16.7575 0.98504,35.9847 17.7425,42.9426l146.801 61.0571c16.7575,6.95788 35.9835,-0.98504 42.9426,-17.7425 6.95788,-16.7563 -0.98504,-35.9835 -17.7425,-42.9414l-146.801 -61.0571z"/>
   <g>
    <path id="_272777848" class="fil0" d="M1342.12 496.069l0 12.6036c0,34.6548 -39.5268,63.0119 -87.8339,63.0119l-460.568 0c-48.3071,0 -87.8327,-28.3547 -87.8327,-63.0119l0 -12.6036 636.234 0z"/>
    <path id="_272777536" class="fil0" d="M637.529 367.441l386.471 -111.441 386.472 111.441 -45.4678 111.444 -682.008 0 -45.4678 -111.444zm413.218 37.1882c0,14.7721 -11.9776,26.7484 -26.7473,26.7484 -14.7709,0 -26.7473,-11.9764 -26.7473,-26.7484l0 -2.16024 -66.867 0 -26.7484 -38.1083 93.7642 0 26.5984 -26.5973 26.5984 26.5973 93.7654 0 -26.7484 38.1083 -66.8682 0 0 2.16024z"/>
    <path id="_272777776" class="fil0" d="M1294.86 601.847c15.2256,57.9178 17.863,126.517 0.483071,181.858 -37.3347,118.862 -169.05,229.864 -270.801,229.864 -101.811,0 -233.626,-111.181 -270.868,-230.08 -13.5673,-43.317 -17.3362,-95.2312 -7.4752,-142.87l8.0256 -38.7709 4.56024 -12.1181c8.84528,2.02087 18.0437,3.09213 27.4831,3.09213l476.547 0c10.2732,0 20.2606,-1.27323 29.817,-3.65433l2.22874 12.6791z"/>
   </g>
  </g>
 </g>
 <rect class="fil2" width="2048" height="2048"/>
</svg>
