<?xml version="1.0" encoding="UTF-8"?>
<!DOCTYPE svg PUBLIC "-//W3C//DTD SVG 1.1//EN" "http://www.w3.org/Graphics/SVG/1.1/DTD/svg11.dtd">
<!-- Creator: CorelDRAW -->
<svg xmlns="http://www.w3.org/2000/svg" xml:space="preserve" width="2048px" height="2048px" style="shape-rendering:geometricPrecision; text-rendering:geometricPrecision; image-rendering:optimizeQuality; fill-rule:evenodd; clip-rule:evenodd"
viewBox="0 0 2048 2048"
 xmlns:xlink="http://www.w3.org/1999/xlink">
 <defs>
  <style type="text/css">
   <![CDATA[
    .fil2 {fill:none}
    .fil1 {fill:#9D976A}
    .fil0 {fill:#9D976A;fill-rule:nonzero}
   ]]>
  </style>
 </defs>
 <g id="Layer_x0020_1">
  <metadata id="CorelCorpID_0Corel-Layer"/>
  <g id="_361795520">
   <path id="_400794472" class="fil0" d="M433.895 1084.92c7.72678,-7.94646 9.16418,-20.354 3.42402,-29.9233 -8.01379,-13.3606 -26.0575,-15.548 -36.8504,-4.4504l-1.91811 1.98425 -1.90394 1.99606 -1.88504 2.00315 -1.87559 2.01496 -1.85906 2.02559 -1.84016 2.03032 -1.82717 2.04213 -1.81536 2.05394 -1.8 2.06339 -1.78465 2.07166 -1.76575 2.07874 -1.75158 2.08701 -1.74331 2.10236 -1.72441 2.11063 -1.70551 2.11181 -1.6937 2.12362 -1.67835 2.13543 -1.66181 2.14016 -1.64882 2.14961 -1.63701 2.16496 -1.61693 2.16614 -1.60039 2.17087 -1.59095 2.18622 -1.57441 2.19567 -1.55906 2.19921 -1.54134 2.2063 -1.52953 2.21693 -1.51063 2.22166 -1.49882 2.22992 -1.48465 2.24055 -1.46929 2.25 -1.45158 2.25355 -1.43976 2.26063 -1.42205 2.27008 -1.40788 2.27244 -1.39488 2.28898 -1.37953 2.29252 -0.761812 1.28622c-7.37599,12.4937 -2.44725,27.1937 8.12953,33.6709 -11.5205,-5.61378 -25.9004,-0.820867 -31.565,11.7827l-0.19252 0.432284 -1.06063 2.4189 -1.04646 2.42481 -1.03228 2.43543 -1.01457 2.43307 -1.00158 2.44016 -0.988583 2.45433 -0.969686 2.44961 -0.954331 2.45433 -0.940158 2.45906 -0.928347 2.46969 -0.910631 2.47441 -0.892914 2.46732 -0.883465 2.48386 -0.865749 2.48622 -0.849213 2.48622 -0.83504 2.49213 -0.820867 2.49803 -0.806694 2.50512 -0.787796 2.50394 -0.774804 2.50748 -0.758268 2.50866 -0.747638 2.52047 -0.729922 2.5252 -0.714567 2.51929 -0.699213 2.5252 -0.686221 2.53465 -0.667323 2.53229 -0.655512 2.53465 -0.638977 2.54528 -0.625985 2.54646 -0.608268 2.54646 -0.594095 2.54882 -0.579922 2.55473 -0.563386 2.55473 -0.549213 2.56181 -0.532678 2.55945 -0.520867 2.56181 -0.50315 2.57008 -0.445276 2.34331c-2.7,14.328 6.8563,26.4319 19.0795,28.6748 -4.87441,-0.474804 -10.0063,0.614174 -14.7413,3.6874 -6.36615,4.1315 -10.2992,10.9736 -10.9276,18.665l-0.0732284 0.992127 -0.17126 2.60197 -0.158268 2.60079 -0.142913 2.61614 -0.127559 2.60433 -0.113386 2.60433 -0.0968505 2.60551 -0.0838583 2.60433 -0.0673229 2.61851 -0.0519685 2.60551 -0.0389764 2.60669 -0.022441 2.6126 -0.00708662 2.60669 0.00708662 2.60669 0.022441 2.6126 0.0389764 2.60551 0.0519685 2.60669 0.0673229 2.61732 0.0838583 2.60669 0.0968505 2.60315 0.113386 2.60433 0.127559 2.60433 0.142913 2.61614 0.158268 2.60197 0.17126 2.60079 0.190158 2.60669 0.201969 2.59961 0.217323 2.59961 0.233858 2.60315 0.248032 2.59606 0.262205 2.59488 0.27874 2.60669 0.294095 2.59134 0.307087 2.58544 0.323622 2.59606 0.338977 2.59252 0.35315 2.59134 0.369685 2.58425 0.382677 2.58307 0.399213 2.58544 0.0295276 0.187795c2.20158,14.0138 15.0437,22.1729 27.2481,20.1106 -3.74292,1.07244 -7.32875,3.13819 -10.4008,6.29646 -6.02953,6.34607 -8.26654,15.1488 -5.97166,23.7106l0.226772 0.816142 0.714567 2.52284 0.729922 2.5252 0.746457 2.51811 0.759449 2.50984 0.774804 2.50866 0.787796 2.50158 0.806694 2.50394 0.820867 2.5004 0.83504 2.49213 0.849213 2.48622 0.86693 2.48622 0.882284 2.48268 0.892914 2.46851 0.910631 2.47323 0.928347 2.46969 0.938977 2.45788 0.955513 2.45669 0.969686 2.44843 0.988583 2.45551 1.00158 2.43898 1.01457 2.43425 1.03347 2.43543 1.04528 2.42362 1.05945 2.41772 1.07599 2.41536 1.09252 2.41181 1.10787 2.40827 1.12087 2.39646 1.13622 2.39055 1.15276 2.39173 1.16811 2.38229 1.1811 2.37166 1.19646 2.36929 1.21063 2.36221 1.22835 2.35866 1.24488 2.35394 1.25551 2.34095 1.27087 2.33622 0.694489 1.25787c6.9815,12.5906 21.7819,15.4205 32.4508,9.11103 -4.0689,3.00591 -7.29331,7.42914 -8.85591,13.1256 -1.92874,7.31575 -0.640158,14.7756 3.69922,20.9197l0.623623 0.869292 1.59095 2.18622 1.60039 2.17205 1.61929 2.16969 1.63465 2.16024 1.64646 2.14843 1.66417 2.14252 1.67835 2.13425 1.6937 2.12362 1.70551 2.11181 1.72677 2.11417 1.74095 2.09764 1.74921 2.08701 1.76811 2.0811 1.78701 2.07402 1.79882 2.06103 1.81181 2.0504 1.82717 2.04213 1.84252 2.03268 1.85906 2.02559 1.87559 2.01496 1.88504 2.00433 1.90394 1.99488 1.91811 1.98425 0.00236221 0.0011811 1.92874 1.97126 1.94055 1.95827 1.94764 1.93937 1.96063 1.92756 1.9689 1.91221 1.9748 1.89213 1.98543 1.87914 1.99843 1.86732 2.00669 1.85079 2.0126 1.83425 2.02205 1.81654 2.03032 1.80118 2.04449 1.79291 1.6937 1.46457c10.8496,9.38859 25.6949,6.58819 33.5398,-3.1004 -2.76496,4.2378 -4.2815,9.48308 -3.86221,15.3248 0.609449,7.57796 4.40315,14.2193 10.5697,18.4276l0.587008 0.39567 2.20866 1.46221 2.20984 1.44803 2.2252 1.43386 2.22992 1.41851 2.22874 1.39725 2.23937 1.38662 2.25236 1.37362 2.25236 1.35236 2.25945 1.33819 2.26654 1.3252 2.2748 1.30748 2.27835 1.29331 2.29016 1.28032 2.29134 1.26142 2.29725 1.24606 2.30079 1.22835 2.30788 1.21536 2.32087 1.20354 2.32323 1.18347 2.32559 1.16929 2.32914 1.15158 2.34213 1.13976 2.34331 1.12205 2.34803 1.10669 2.35276 1.09134 2.35748 1.0748 2.36929 1.06181 2.36575 1.04291 2.37284 1.02992 2.38701 1.01693 2.38229 0.996851 2.38583 0.981497 2.39173 0.967324 2.40118 0.954331 2.40591 0.936615 2.4 0.918898 2.41536 0.907087 2.41772 0.890552 0.970867 0.350788c13.1221,4.78819 26.2607,-3.00355 30.3,-15.0614 -2.84055,12.4984 4.35945,26.1166 17.8559,29.2607l2.46142 0.559843 2.48977 0.548032 2.49213 0.53504 2.49921 0.517323 2.49567 0.50315 2.50394 0.487796 2.50748 0.472441 2.50276 0.454725 2.50394 0.440552 2.50866 0.425197 2.51575 0.409843 2.50984 0.393307 2.51103 0.380315 2.52166 0.36378 2.52284 0.348425 2.52166 0.333071 2.51457 0.315355 2.52166 0.302362 2.53229 0.287008 2.52402 0.269292 2.5252 0.255118 2.5311 0.239764 2.52874 0.22441 2.52756 0.207874 2.53465 0.194882 2.52992 0.177165 2.52992 0.162992 2.5441 0.146457 2.53229 0.131102 2.53229 0.116929 2.53229 0.0992127 2.53465 0.0862205 2.54646 0.0696851 2.53347 0.0531496 2.53465 0.0401575 2.54055 0.022441 2.53465 0.00708662 2.53465 -0.00708662 2.54055 -0.022441 0.969686 -0.0141732c14.1862,-0.223229 23.7059,-12.3496 23.3504,-25.0748 0.243307,2.15315 0.772442,4.32402 1.61575,6.46536 4.10788,10.2095 14.2831,16.3087 24.9496,14.8748l2.24764 -0.311811 2.52166 -0.36378 2.51103 -0.380315 2.51103 -0.393307 2.51457 -0.409843 2.50866 -0.425197 2.50512 -0.440552 2.50158 -0.454725 2.50748 -0.472441 2.50394 -0.487796 2.49567 -0.50315 2.49921 -0.517323 2.49213 -0.53504 2.48977 -0.548032 2.49095 -0.565748 2.48268 -0.578741 2.48504 -0.595276 2.47914 -0.611811 2.47559 -0.625985 2.47677 -0.643701 2.47441 -0.657875 2.46496 -0.673229 2.4626 -0.686221 2.46496 -0.7063 2.45551 -0.718111 2.45079 -0.734646 2.45551 -0.751182 2.44961 -0.766536 2.44134 -0.78189 2.43898 -0.796064 2.43307 -0.811418 2.43662 -0.829134 2.42835 -0.844489 2.42481 -0.858662 2.41654 -0.872835 2.41772 -0.890552 2.41536 -0.907087 2.4 -0.918898 2.40591 -0.936615 0.748819 -0.297638c9.92954,-3.90237 16.1799,-14.2512 15.0791,-25.1398 -0.242126,-2.38701 -0.80315,-4.63937 -1.62874,-6.72756 2.2689,4.68307 6.08032,8.71654 11.4024,11.2075 6.71339,3.04843 14.1425,2.87126 20.6681,-0.627166l0.734646 -0.399213 2.29134 -1.26142 2.29016 -1.28032 2.27953 -1.29331 2.27362 -1.30748 2.26772 -1.3252 2.25827 -1.33819 2.25236 -1.35236 2.25236 -1.37362 2.23937 -1.38662 2.22874 -1.39725 2.22992 -1.41851 2.2252 -1.43386 2.21103 -1.44803 2.20748 -1.46221 2.19803 -1.47992 2.19213 -1.49291 2.1874 -1.51181 2.17914 -1.52599 2.16851 -1.54134 2.15906 -1.55315 2.15669 -1.57323 2.14488 -1.58504 2.14016 -1.60276 2.13425 -1.61929 2.12599 -1.63583 2.11181 -1.64528 2.10591 -1.66299 2.10591 -1.68425 2.09055 -1.69488 2.0811 -1.70906 2.0752 -1.72677 2.06575 -1.74095 2.05394 -1.75394 2.05158 -1.77284 2.04567 -1.79291 2.02914 -1.80118 2.02205 -1.81654 1.28386 -1.16929c13.2024,-12.0532 9.55394,-33.8788 -6.78189,-40.8024 -8.40591,-3.41339 -17.6173,-1.79528 -24.4429,4.30158l-1.28504 1.17047 -1.79764 1.61693 -1.80473 1.60276 -1.80709 1.58268 -1.81772 1.57205 -1.83071 1.5626 -1.83425 1.54488 -1.84134 1.53189 -1.85079 1.52126 -1.85551 1.50354 -1.85788 1.48819 -1.87205 1.4752 -1.8815 1.46693 -1.8815 1.44803 -1.88858 1.43386 -1.89921 1.42087 -1.90748 1.41024 -1.90984 1.3937 -1.92047 1.38189 -1.92638 1.36772 -1.92992 1.35236 -1.93465 1.33701 -1.9441 1.3252 -1.95236 1.31221 -1.95709 1.29803 -1.96536 1.28386 -1.96417 1.26969 -1.9748 1.25315 -1.98662 1.24725 -1.99016 1.23071 -1.9878 1.21299 -2.00079 1.20236 -2.00788 1.18937 -2.00906 1.17402 -2.01496 1.15984 -2.02323 1.14685 -2.02559 1.1315 -2.03268 1.1185 -0.477166 0.259843c-11.661,6.30591 -15.1819,19.9595 -10.8756,30.828 -5.22402,-10.7953 -17.8217,-16.5071 -29.6103,-11.876l-0.748819 0.298819 -2.13189 0.827953 -2.1437 0.820867 -2.13662 0.80315 -2.14488 0.788977 -2.14961 0.777166 -2.15433 0.764174 -2.15433 0.748819 -2.15551 0.732284 -2.16732 0.722835 -2.16614 0.708662 -2.17441 0.694489 -2.17087 0.680315 -2.17323 0.664961 -2.18386 0.65315 -2.18622 0.640158 -2.18268 0.624804 -2.19331 0.611811 -2.19449 0.6 -2.19331 0.583465 -2.19449 0.569292 -2.20158 0.5563 -2.20748 0.544489 -2.20512 0.527953 -2.21103 0.517323 -2.20866 0.500788 -2.21457 0.488977 -2.21929 0.474804 -2.21693 0.46063 -2.22402 0.446457 -2.21929 0.433465 -2.22166 0.416929 -2.22992 0.407481 -2.23229 0.390945 -2.23229 0.379134 -2.2311 0.364961 -2.23819 0.350788 -2.23819 0.336614 -2.23347 0.323622 -1.96417 0.272835c-12.4866,1.77638 -20.9162,12.7843 -20.5606,24.7996 -0.480709,-4.27914 -2.10118,-8.55591 -5.06457,-12.4051 -4.67481,-5.8689 -11.3102,-9.13111 -18.7028,-9.07205l-0.969686 0.0141732 -2.25236 0.0200788 -2.25945 0.00708662 -2.26063 -0.00708662 -2.25236 -0.0200788 -2.25945 -0.034252 -2.25945 -0.0472441 -2.24882 -0.0614174 -2.25709 -0.0767717 -2.25827 -0.0897638 -2.25709 -0.102756 -2.25827 -0.116929 -2.2441 -0.129921 -2.25473 -0.145276 -2.25591 -0.158268 -2.24882 -0.17126 -2.25236 -0.186614 -2.25355 -0.199606 -2.24528 -0.211417 -2.25118 -0.229134 -2.24646 -0.239764 -2.23701 -0.253937 -2.24764 -0.269292 -2.25 -0.282284 -2.23819 -0.294095 -2.23701 -0.309449 -2.23347 -0.323622 -2.23937 -0.336614 -2.23819 -0.350788 -2.2311 -0.364961 -2.23229 -0.379134 -2.23229 -0.390945 -2.22992 -0.407481 -2.22166 -0.416929 -2.21929 -0.433465 -2.22402 -0.446457 -2.21693 -0.46063 -2.21811 -0.474804 -2.21457 -0.488977 -2.18032 -0.494882c-8.65749,-1.94764 -17.3929,1.05827 -23.1709,7.96654 -1.99606,2.44016 -3.43229,5.10355 -4.35473,7.86024 0.770079,-3.39803 0.830316,-7.07363 0.00354331,-10.8543 -1.79646,-8.14725 -7.49528,-14.7555 -15.1559,-17.55l-0.970867 -0.350788 -2.14488 -0.788977 -2.13662 -0.80315 -2.1437 -0.820867 -2.13189 -0.827953 -2.1248 -0.844489 -2.12599 -0.859843 -2.12362 -0.874016 -2.1189 -0.885827 -2.10354 -0.897638 -2.10945 -0.915355 -2.10591 -0.928347 -2.09528 -0.940158 -2.09528 -0.955513 -2.09055 -0.968505 -2.08465 -0.982678 -2.07874 -0.994489 -2.07166 -1.00866 -2.07166 -1.0252 -2.06693 -1.03701 -2.05748 -1.05 -2.0504 -1.06299 -2.0504 -1.07835 -2.04685 -1.09488 -2.03858 -1.10669 -2.03386 -1.1185 -2.02559 -1.1315 -2.02205 -1.14685 -2.01614 -1.15984 -2.00906 -1.17402 -2.00788 -1.18937 -2.00079 -1.20236 -1.9878 -1.21299 -1.99016 -1.23071 -1.98662 -1.24725 -1.97362 -1.25315 -1.96536 -1.26969 -1.96536 -1.28386 -1.95709 -1.29803 -0.340158 -0.229134c-10.8933,-7.33111 -24.0449,-4.05237 -31.2544,4.8626 2.4815,-3.81024 3.96024,-8.46969 3.9189,-13.7339 -0.114567,-7.1315 -3.07323,-13.6583 -8.36694,-18.2847l-1.6937 -1.46457 -1.80709 -1.58268 -1.80354 -1.60276 -1.79882 -1.61693 -1.78819 -1.62638 -1.7811 -1.64291 -1.77047 -1.65473 -1.76457 -1.67008 -1.75984 -1.68662 -1.74803 -1.69725 -1.73858 -1.71024 -1.73504 -1.72795 -1.72323 -1.73858 -1.71614 -1.75158 -0.0011811 0 -0.0011811 -0.0011811 -1.70315 -1.76339 -1.69016 -1.77284 -1.68071 -1.78347 -1.66299 -1.78819 -1.65 -1.79764 -1.63701 -1.80709 -1.6252 -1.81654 -1.61339 -1.82599 -1.59685 -1.83071 -1.58032 -1.83543 -1.56969 -1.84606 -1.56142 -1.85906 -1.54134 -1.86142 -1.52599 -1.86496 -1.5189 -1.88268 -1.50354 -1.88622 -1.48937 -1.89331 -1.47638 -1.90158 -1.46457 -1.91103 -1.44921 -1.91339 -1.43386 -1.92166 -1.42559 -1.93465 -1.40906 -1.93465 -0.441733 -0.616536c-7.72323,-10.7929 -21.2055,-12.4134 -30.9898,-6.6189 3.25394,-2.40827 6.00119,-5.76024 7.8378,-10.0394 2.94567,-7.13032 2.58307,-14.85 -1.08543,-21.6284l-0.694489 -1.25906 -1.1315 -2.0752 -1.11614 -2.08229 -1.10079 -2.0811 -1.08662 -2.08937 -1.07599 -2.09646 -1.06299 -2.10236 -1.05 -2.11181 -1.03465 -2.10945 -1.01929 -2.11417 -1.00866 -2.12599 -0.996851 -2.12953 -0.981497 -2.13071 -0.966142 -2.13543 -0.955513 -2.14488 -0.94252 -2.15197 -0.930709 -2.15551 -0.912993 -2.15315 -0.903544 -2.16614 -0.889371 -2.16851 -0.872835 -2.16378 -0.861024 -2.17795 -0.849213 -2.1815 -0.836221 -2.18977 -0.822048 -2.18504 -0.805512 -2.19095 -0.798426 -2.20512 -0.78189 -2.19803 -0.766536 -2.20394 -0.755906 -2.21221 -0.741733 -2.21339 -0.728741 -2.21457 -0.712205 -2.21811 -0.702756 -2.22874 -0.688583 -2.22874 -0.675591 -2.23583 -0.662599 -2.23347 -0.646063 -2.23347 -0.635434 -2.2441 -0.15 -0.540945c-3.52205,-12.678 -15.4512,-19.2933 -26.6669,-17.3953 3.06142,-0.878741 6.03308,-2.43425 8.72953,-4.73977 6.43819,-5.49449 9.55513,-14.0917 8.22166,-22.5792l-0.0283465 -0.187795 -0.355512 -2.2937 -0.340158 -2.29961 -0.328347 -2.30315 -0.314173 -2.29843 -0.301181 -2.29961 -0.285827 -2.30079 -0.275197 -2.31496 -0.261024 -2.31024 -0.246851 -2.29961 -0.233858 -2.3126 -0.222047 -2.31496 -0.206693 -2.30788 -0.193701 -2.31732 -0.18189 -2.31732 -0.165354 -2.31142 -0.153543 -2.31969 -0.142913 -2.31969 -0.126378 -2.30669 -0.112205 -2.32205 -0.100394 -2.32205 -0.0874016 -2.32205 -0.0744095 -2.32205 -0.0602363 -2.31024 -0.046063 -2.32441 -0.0330709 -2.32323 -0.0200788 -2.31732 -0.00708662 -2.32323 0.00708662 -2.32441 0.0200788 -2.31614 0.0330709 -2.32441 0.046063 -2.32205 0.0602363 -2.3126 0.0744095 -2.32087 0.0874016 -2.32323 0.100394 -2.32087 0.112205 -2.32205 0.126378 -2.30788 0.142913 -2.31851 0.153543 -2.31969 0.0496063 -0.698032c0.994489,-13.4043 -8.31379,-23.7543 -19.5189,-25.8295 3.95433,0.375591 8.12481,-0.277559 12.2091,-2.20748 6.8504,-3.36378 11.6315,-9.59883 13.1327,-17.263l0.445276 -2.34331 0.447638 -2.27835 0.461811 -2.28189 0.474804 -2.27953 0.487796 -2.27008 0.501969 -2.27362 0.514961 -2.2689 0.529134 -2.2689 0.540945 -2.26417 0.553937 -2.25709 0.56693 -2.25473 0.583465 -2.25709 0.595276 -2.25473 0.607087 -2.24528 0.622441 -2.24764 0.635434 -2.24528 0.646063 -2.23583 0.661418 -2.2311 0.676772 -2.23583 0.688583 -2.2311 0.702756 -2.22638 0.712205 -2.21693 0.728741 -2.21457 0.741733 -2.21575 0.755906 -2.21103 0.767717 -2.20512 0.780709 -2.19803 0.798426 -2.20394 0.805512 -2.19095 0.822048 -2.18622 0.83504 -2.18622 0.850394 -2.18268 0.861024 -2.18032 0.872835 -2.1626 0.889371 -2.16969 0.903544 -2.16496 0.914174 -2.15551 0.929528 -2.15433 0.941339 -2.14961 0.0732284 -0.161811c4.48937,-9.98977 1.89331,-21.7406 -6.27166,-28.8248 -0.994489,-0.851575 -2.0315,-1.60394 -3.10158,-2.25827 3.93307,1.9063 8.51103,2.72835 13.4469,2.01496 6.99095,-1.07717 13.0205,-5.14016 16.7327,-11.335l0.761812 -1.28504 1.2189 -2.03032 1.23425 -2.02087 1.24961 -2.02087 1.26142 -2.0126 1.27677 -2.00669 1.28858 -1.99961 1.30039 -1.99016 1.31457 -1.98425 1.32992 -1.98071 1.3441 -1.9748 1.35473 -1.96417 1.37126 -1.96181 1.38189 -1.95354 1.3937 -1.94055 1.40906 -1.93583 1.42559 -1.93465 1.43622 -1.92402 1.44685 -1.91221 1.46221 -1.90748 1.47874 -1.90276 1.48937 -1.89331 1.50354 -1.8874 1.5189 -1.88268 1.52835 -1.86851 1.53898 -1.85788 1.55906 -1.85551 1.57205 -1.84961 1.58268 -1.83898 1.59685 -1.83071 1.60866 -1.82008 1.6252 -1.81536 1.63937 -1.80945 1.65 -1.79764 1.66299 -1.78819 1.68071 -1.78347 1.69016 -1.77284 1.70433 -1.76457zm634.356 -719.978c-13.2024,12.0532 -9.55394,33.8788 6.78189,40.8024 8.40591,3.41339 17.6173,1.79528 24.4429,-4.30158l1.28504 -1.16929 1.79764 -1.61693 1.80473 -1.60276 1.80709 -1.58268 1.81772 -1.57205 1.83071 -1.5626 1.83425 -1.54488 1.84134 -1.53189 1.85079 -1.52126 1.85197 -1.5 1.8626 -1.49055 1.87441 -1.47874 1.87795 -1.46457 1.8815 -1.44803 1.88858 -1.43386 1.89921 -1.42087 1.90748 -1.41024 1.90984 -1.3937 1.92047 -1.38189 1.92638 -1.36772 1.92992 -1.35236 1.93465 -1.33701 1.9441 -1.3252 1.95236 -1.31221 1.95709 -1.29803 1.96063 -1.2815 1.9689 -1.27087 1.97953 -1.25787 1.98189 -1.2437 1.98543 -1.22835 1.99252 -1.21417 2.00433 -1.20591 2.00433 -1.18701 2.00906 -1.17402 2.0126 -1.15866 2.02205 -1.14567 2.0315 -1.13386 2.03504 -1.12087 0.472441 -0.257481c11.6646,-6.30709 15.1843,-19.9701 10.8732,-30.8386 5.22048,10.8024 17.8217,16.5201 29.6138,11.8866l0.747638 -0.297638 2.13543 -0.831497 2.13543 -0.817323 2.14134 -0.80315 2.14725 -0.791339 2.14843 -0.775985 2.14961 -0.762993 2.15788 -0.748819 2.16142 -0.735827 2.15906 -0.720473 2.16969 -0.708662 2.16969 -0.693308 2.17441 -0.680315 2.17914 -0.667323 2.17795 -0.651969 2.18622 -0.640158 2.18268 -0.624804 2.1874 -0.61063 2.19449 -0.598819 2.19803 -0.584646 2.2004 -0.570473 2.19921 -0.557481 2.2063 -0.543308 2.20866 -0.529134 2.20158 -0.514961 2.21221 -0.500788 2.21693 -0.490158 2.21929 -0.473622 2.21575 -0.461811 2.21693 -0.444095 2.23347 -0.435827 2.22166 -0.418111 2.22284 -0.405118 2.23347 -0.392126 2.23229 -0.379134 2.22992 -0.364961 2.23229 -0.349607 2.23937 -0.336614 2.23819 -0.323622 1.97008 -0.271654c13.2012,-1.8815 20.8843,-13.3949 20.5347,-24.9851 0.455906,4.33937 2.07874,8.68583 5.08465,12.5894 4.67481,5.8689 11.3102,9.13111 18.7028,9.07205l0.969686 -0.0141732 2.25945 -0.0212599 2.25355 -0.00708662 2.25355 0.00708662 2.25945 0.0212599 2.25945 0.0330709 2.25355 0.0484252 2.25827 0.0614174 2.25236 0.0755906 2.25945 0.090945 2.25709 0.101575 2.25 0.11811 2.25827 0.129921 2.24882 0.144095 2.25473 0.159449 2.25591 0.17126 2.24646 0.185433 2.24646 0.198425 2.25236 0.21378 2.25 0.227953 2.24292 0.239764 2.24646 0.255118 2.24173 0.26811 2.24528 0.282284 2.24528 0.295276 2.23583 0.309449 2.23937 0.323622 2.23347 0.335433 2.23819 0.351969 2.23583 0.364961 2.22638 0.377953 2.22874 0.390945 2.22756 0.407481 2.22756 0.418111 2.22166 0.433465 2.22284 0.446457 2.22047 0.46063 2.21339 0.473622 2.21221 0.488977 2.18386 0.496063c8.65749,1.94764 17.3929,-1.05827 23.1709,-7.96654 2.04331,-2.5004 3.49843,-5.23229 4.41851,-8.05985 -2.62441,11.4095 2.99292,24.1902 15.0898,28.604l0.972048 0.350788 2.14252 0.788977 2.14134 0.804331 2.13898 0.818505 2.13189 0.829134 2.1248 0.843308 2.12599 0.861024 2.12362 0.872835 2.11417 0.884646 2.11181 0.901182 2.10591 0.912993 2.09882 0.925985 2.10709 0.946064 2.09528 0.954331 2.07992 0.96378 2.08819 0.98504 2.0811 0.99567 2.07166 1.00866 2.07166 1.0252 2.06693 1.03701 2.05748 1.05 2.0504 1.06299 2.0504 1.07835 2.04685 1.09488 2.03858 1.10669 2.0315 1.11732 2.02677 1.13268 2.02559 1.14803 2.01378 1.15866 2.00906 1.17402 2.00788 1.18937 2.00079 1.20236 1.99252 1.21536 1.98543 1.22717 1.98189 1.24488 1.97835 1.25669 1.96536 1.26969 1.96536 1.28386 1.95709 1.29803 0.338977 0.229134c10.8933,7.33111 24.0449,4.05237 31.2544,-4.8626 -2.4815,3.81024 -3.96024,8.46969 -3.9189,13.7339 0.114567,7.1315 3.07323,13.6583 8.36694,18.2847l1.69488 1.46457 1.80709 1.58268 1.80354 1.60276 1.79882 1.61693 1.78819 1.62638 1.7811 1.64291 1.77047 1.65473 1.76457 1.67008 1.75984 1.68662 1.74803 1.69725 1.73858 1.71024 1.73504 1.72795 1.72323 1.73858 1.71614 1.75158 0.0011811 0.0011811 1.70433 1.76457 1.69016 1.77284 1.68071 1.78347 1.66299 1.78819 1.65 1.79764 1.63937 1.81063 1.6252 1.81417 1.60866 1.82126 1.59685 1.83071 1.58268 1.83898 1.57205 1.84843 1.55906 1.85551 1.53898 1.85906 1.52835 1.86851 1.5189 1.88268 1.50354 1.88622 1.48937 1.89331 1.47874 1.90394 1.46221 1.90748 1.44685 1.91103 1.43622 1.9252 1.42559 1.93465 1.40906 1.93465 0.441733 0.615355c7.73859,10.813 21.2563,12.4193 31.0453,6.58583 -2.70709,1.99725 -5.07874,4.65473 -6.88938,7.97599 -3.95906,7.57914 -3.99803,16.1835 0.0838583,23.7272l0.694489 1.25906 1.12913 2.07284 1.11496 2.07992 1.10079 2.08229 1.0878 2.09173 1.07599 2.09646 1.06417 2.10473 1.04882 2.10827 1.03347 2.10827 1.02047 2.11654 1.00866 2.12599 0.996851 2.12953 0.981497 2.13071 0.967324 2.1378 0.955513 2.1437 0.941339 2.14961 0.929528 2.15433 0.914174 2.15551 0.903544 2.16496 0.889371 2.16969 0.872835 2.1626 0.861024 2.17914 0.850394 2.18268 0.83504 2.1874 0.822048 2.18504 0.805512 2.19213 0.798426 2.20394 0.780709 2.19685 0.767717 2.2063 0.755906 2.21103 0.741733 2.21457 0.728741 2.21575 0.712205 2.21575 0.702756 2.22874 0.688583 2.22874 0.675591 2.23583 0.662599 2.23229 0.646063 2.23583 0.635434 2.2441 0.15 0.539764c3.54803,12.7713 15.6284,19.3902 26.915,17.3516 -11.0362,3.09213 -19.2484,14.3221 -17.1992,27.3614l0.0283465 0.187795 0.355512 2.29488 0.340158 2.30079 0.328347 2.30315 0.314173 2.29606 0.301181 2.30197 0.285827 2.30079 0.275197 2.31378 0.261024 2.31142 0.246851 2.29961 0.233858 2.31142 0.222047 2.31496 0.206693 2.30788 0.193701 2.31732 0.18189 2.31732 0.165354 2.31142 0.153543 2.31969 0.142913 2.31969 0.126378 2.30669 0.112205 2.32205 0.100394 2.32205 0.0874016 2.32205 0.0744095 2.32205 0.0602363 2.31142 0.046063 2.32323 0.0330709 2.32441 0.0200788 2.31614 0.00708662 2.32323 -0.00708662 2.32441 -0.0200788 2.31614 -0.0330709 2.32441 -0.046063 2.32205 -0.0602363 2.3126 -0.0744095 2.32205 -0.0874016 2.32205 -0.100394 2.32087 -0.112205 2.32205 -0.126378 2.30788 -0.142913 2.31851 -0.153543 2.31969 -0.0496063 0.698032c-0.994489,13.4043 8.31379,23.7543 19.5189,25.8295 -3.95433,-0.375591 -8.12481,0.277559 -12.2091,2.20748 -6.8504,3.36378 -11.6315,9.59883 -13.1327,17.263l-0.445276 2.34331 -0.447638 2.27953 -0.461811 2.28189 -0.474804 2.27717 -0.487796 2.27126 -0.501969 2.27362 -0.514961 2.2689 -0.529134 2.2689 -0.540945 2.26417 -0.553937 2.25709 -0.56693 2.25473 -0.583465 2.25709 -0.595276 2.25473 -0.607087 2.24528 -0.622441 2.24764 -0.635434 2.24528 -0.646063 2.23583 -0.662599 2.23229 -0.675591 2.23583 -0.688583 2.22756 -0.702756 2.22874 -0.712205 2.21693 -0.728741 2.21457 -0.741733 2.21575 -0.755906 2.21103 -0.767717 2.20512 -0.780709 2.19803 -0.798426 2.20394 -0.805512 2.19095 -0.822048 2.18622 -0.83504 2.18622 -0.850394 2.18268 -0.861024 2.18032 -0.872835 2.1626 -0.889371 2.16969 -0.903544 2.16496 -0.914174 2.15551 -0.929528 2.15433 -0.941339 2.14961 -0.0732284 0.161811c-4.48937,9.98977 -1.89331,21.7406 6.27166,28.8248 0.994489,0.851575 2.0315,1.60394 3.10158,2.25827 -3.93307,-1.9063 -8.51103,-2.72835 -13.4469,-2.01496 -6.99095,1.07717 -13.0205,5.14016 -16.7327,11.335l-0.761812 1.28504 -1.2189 2.03032 -1.23425 2.02087 -1.24961 2.02087 -1.26142 2.0126 -1.27677 2.00669 -1.28858 1.99961 -1.30039 1.99016 -1.31457 1.98425 -1.32992 1.98071 -1.3441 1.9748 -1.35473 1.96417 -1.37126 1.96181 -1.38189 1.95354 -1.3937 1.94055 -1.40906 1.93583 -1.42559 1.93465 -1.43622 1.92402 -1.44685 1.91221 -1.46221 1.90748 -1.47874 1.90276 -1.48937 1.89331 -1.50354 1.8874 -1.5189 1.88268 -1.52835 1.86851 -1.53898 1.85788 -1.55906 1.85551 -1.57205 1.84961 -1.58268 1.83898 -1.59685 1.83071 -1.60866 1.82008 -1.6252 1.81536 -1.63937 1.80945 -1.65 1.79764 -1.66299 1.78819 -1.68071 1.78347 -1.69016 1.77284 -1.70433 1.76457c-7.72678,7.94646 -9.16418,20.354 -3.42402,29.9233 8.01379,13.3606 26.0575,15.548 36.8504,4.4504l1.91811 -1.98425 1.90394 -1.99606 1.88504 -2.00315 1.87559 -2.01496 1.85906 -2.02559 1.84016 -2.03032 1.82717 -2.04213 1.81536 -2.05394 1.8 -2.06339 1.78465 -2.07166 1.76575 -2.07874 1.75158 -2.08701 1.74331 -2.10236 1.72441 -2.11063 1.70551 -2.11181 1.6937 -2.12362 1.67835 -2.13543 1.66181 -2.14016 1.64882 -2.14961 1.63701 -2.16496 1.61693 -2.16614 1.60039 -2.17087 1.59095 -2.18622 1.57441 -2.19567 1.55906 -2.19921 1.54134 -2.2063 1.52953 -2.21693 1.51063 -2.22166 1.49882 -2.22992 1.48465 -2.24055 1.46929 -2.25 1.45158 -2.25355 1.43976 -2.26063 1.42205 -2.27008 1.40788 -2.27244 1.39488 -2.28898 1.37953 -2.29252 0.761812 -1.28622c7.37599,-12.4937 2.44725,-27.1937 -8.12953,-33.6709 11.5205,5.61378 25.9004,0.820867 31.565,-11.7827l0.19252 -0.432284 1.06063 -2.4189 1.04646 -2.42481 1.03228 -2.43543 1.01457 -2.43307 1.00158 -2.44016 0.988583 -2.45433 0.969686 -2.44961 0.954331 -2.45433 0.940158 -2.45906 0.928347 -2.46969 0.910631 -2.47441 0.892914 -2.46732 0.883465 -2.48386 0.865749 -2.48622 0.849213 -2.48504 0.83504 -2.49331 0.820867 -2.49803 0.806694 -2.50512 0.787796 -2.50158 0.774804 -2.50866 0.759449 -2.51103 0.746457 -2.51929 0.729922 -2.5252 0.714567 -2.51929 0.699213 -2.5252 0.686221 -2.53465 0.667323 -2.53229 0.655512 -2.53465 0.638977 -2.54528 0.625985 -2.54646 0.608268 -2.54646 0.594095 -2.54882 0.579922 -2.55473 0.563386 -2.55473 0.549213 -2.56063 0.532678 -2.55945 0.520867 -2.56418 0.50315 -2.5689 0.445276 -2.34331c2.7,-14.328 -6.8563,-26.4319 -19.0795,-28.6748 4.87441,0.474804 10.0063,-0.614174 14.7413,-3.6874 6.36615,-4.1315 10.2992,-10.9736 10.9276,-18.665l0.0732284 -0.992127 0.17126 -2.60197 0.158268 -2.60079 0.142913 -2.61614 0.127559 -2.60433 0.113386 -2.60433 0.0968505 -2.60433 0.0838583 -2.60551 0.0673229 -2.61851 0.0519685 -2.60551 0.0389764 -2.60669 0.022441 -2.6126 0.00708662 -2.60669 -0.00708662 -2.60551 -0.022441 -2.6126 -0.0389764 -2.60669 -0.0519685 -2.60551 -0.0673229 -2.61851 -0.0838583 -2.60669 -0.0968505 -2.60315 -0.113386 -2.60433 -0.127559 -2.60433 -0.142913 -2.61614 -0.158268 -2.60197 -0.17126 -2.60079 -0.190158 -2.60669 -0.201969 -2.59961 -0.217323 -2.59961 -0.233858 -2.60197 -0.248032 -2.59725 -0.262205 -2.59606 -0.27874 -2.60433 -0.294095 -2.59252 -0.307087 -2.58662 -0.323622 -2.5937 -0.338977 -2.59252 -0.35315 -2.5937 -0.369685 -2.58189 -0.382677 -2.58189 -0.399213 -2.58662 -0.0295276 -0.187795c-1.3878,-8.83465 -7.24961,-15.9567 -15.3957,-19.0158 -4.07244,-1.47992 -8.16024,-1.75276 -11.9811,-1.06063 3.78898,-1.06063 7.42205,-3.13701 10.5295,-6.33189 6.02953,-6.34607 8.26654,-15.1488 5.97166,-23.7106l-0.226772 -0.817323 -0.714567 -2.52047 -0.729922 -2.5252 -0.746457 -2.51929 -0.759449 -2.50984 -0.774804 -2.50866 -0.787796 -2.50158 -0.806694 -2.5063 -0.820867 -2.49685 -0.83504 -2.49331 -0.849213 -2.48504 -0.865749 -2.48622 -0.883465 -2.48386 -0.892914 -2.46851 -0.910631 -2.47323 -0.928347 -2.46969 -0.940158 -2.46024 -0.954331 -2.45315 -0.969686 -2.44961 -0.988583 -2.45433 -1.00158 -2.44016 -1.01457 -2.43307 -1.03228 -2.43543 -1.04646 -2.42481 -1.06063 -2.42008 -1.07599 -2.41418 -1.09134 -2.40945 -1.10787 -2.40827 -1.12087 -2.39646 -1.13622 -2.39055 -1.15158 -2.38937 -1.16929 -2.38583 -1.18228 -2.37284 -1.19528 -2.36693 -1.21063 -2.36221 -1.22717 -2.3563 -1.24488 -2.35512 -1.25669 -2.34331 -1.27323 -2.33858 -0.694489 -1.25787c-6.90945,-12.4618 -21.7181,-15.489 -32.465,-9.09568 4.07717,-3.00709 7.30749,-7.43505 8.87245,-13.1386 1.92874,-7.31575 0.640158,-14.7756 -3.69922,-20.9197l-0.623623 -0.868111 -1.59095 -2.18622 -1.60039 -2.17205 -1.61693 -2.16614 -1.63701 -2.16496 -1.64882 -2.14961 -1.66181 -2.13898 -1.67835 -2.13543 -1.6937 -2.12362 -1.70551 -2.11181 -1.72441 -2.11063 -1.74331 -2.10236 -1.75158 -2.08819 -1.76575 -2.07874 -1.78465 -2.07047 -1.8 -2.06339 -1.81536 -2.05512 -1.82717 -2.04213 -1.84016 -2.02914 -1.85906 -2.02559 -1.87559 -2.01496 -1.88504 -2.00433 -1.90394 -1.99488 -1.91811 -1.98425 -0.0011811 -0.0011811 -1.92992 -1.97244 -1.94055 -1.95827 -1.94764 -1.93937 -1.96063 -1.92756 -1.9689 -1.91221 -1.9748 -1.89213 -1.98543 -1.87914 -1.99843 -1.86732 -2.00669 -1.85079 -2.0126 -1.83425 -2.02205 -1.81654 -2.03032 -1.80118 -2.04449 -1.79291 -1.69488 -1.46457c-10.8496,-9.38859 -25.6949,-6.58819 -33.5398,3.1004 2.76496,-4.2378 4.2815,-9.48308 3.86221,-15.3248 -0.609449,-7.57796 -4.40315,-14.2193 -10.5697,-18.4276l-0.585827 -0.39567 -2.20866 -1.46221 -2.20984 -1.44803 -2.2252 -1.43386 -2.2252 -1.41496 -2.23347 -1.40197 -2.2441 -1.3878 -2.24764 -1.37126 -2.25236 -1.35236 -2.25945 -1.33819 -2.26654 -1.3252 -2.27717 -1.30866 -2.27717 -1.29213 -2.28662 -1.27913 -2.2937 -1.2626 -2.29725 -1.24606 -2.30079 -1.22835 -2.30788 -1.21536 -2.32087 -1.20354 -2.32323 -1.18347 -2.32559 -1.16929 -2.32914 -1.15158 -2.34213 -1.13976 -2.34095 -1.12087 -2.34685 -1.10669 -2.36103 -1.09606 -2.35984 -1.07362 -2.35512 -1.05591 -2.37284 -1.04764 -2.37756 -1.02992 -2.37756 -1.01339 -2.38701 -1.00039 -2.38583 -0.980316 -2.39173 -0.968505 -2.40118 -0.95315 -2.40591 -0.937796 -2.40473 -0.918898 -2.41063 -0.905906 -2.42008 -0.890552 -0.972048 -0.350788c-8.02205,-2.92677 -16.8236,-1.20354 -23.2937,4.45866 -3.41693,3.02244 -5.72717,6.70985 -7.01103,10.6394 2.86418,-12.5091 -4.33701,-26.1508 -17.8477,-29.2973l-2.45669 -0.558662 -2.49567 -0.550394 -2.49449 -0.533859 -2.49567 -0.517323 -2.49685 -0.50315 -2.50394 -0.487796 -2.49921 -0.47126 -2.50512 -0.457087 -2.50984 -0.440552 -2.51221 -0.426378 -2.51103 -0.407481 -2.50984 -0.394488 -2.51693 -0.379134 -2.51575 -0.36378 -2.52402 -0.348425 -2.51693 -0.33189 -2.51929 -0.317717 -2.5252 -0.301181 -2.52284 -0.285827 -2.52992 -0.271654 -2.52402 -0.253937 -2.52756 -0.239764 -2.53229 -0.225591 -2.53347 -0.209055 -2.52992 -0.19252 -2.52874 -0.178347 -2.53819 -0.161811 -2.52992 -0.146457 -2.53819 -0.132284 -2.53229 -0.115748 -2.53347 -0.100394 -2.54055 -0.0850394 -2.53347 -0.0696851 -2.53937 -0.0543308 -2.53465 -0.0389764 -2.53583 -0.0236221 -2.53937 -0.00708662 -2.54055 0.00708662 -2.53583 0.0236221 -0.969686 0.0141732c-14.1862,0.22441 -23.7047,12.3484 -23.3504,25.0736 -0.643701,-6.09449 -3.55158,-12.065 -9.09568,-16.5189 -5.02205,-3.94016 -11.2028,-5.66339 -17.4732,-4.82008l-2.2441 0.311811 -2.51575 0.36378 -2.51103 0.377953 -2.51693 0.394488 -2.51575 0.409843 -2.5063 0.425197 -2.5063 0.43937 -2.50866 0.457087 -2.50512 0.473622 -2.49213 0.485433 -2.50276 0.50315 -2.5004 0.518504 -2.48977 0.533859 -2.48977 0.549213 -2.4874 0.563386 -2.49213 0.581103 -2.4815 0.597638 -2.47795 0.609449 -2.47795 0.627166 -2.47323 0.64252 -2.46969 0.656693 -2.46496 0.672048 -2.46851 0.687402 -2.46496 0.7063 -2.45551 0.718111 -2.45669 0.735827 -2.44961 0.751182 -2.44606 0.764174 -2.4437 0.783071 -2.4378 0.796064 -2.44134 0.81378 -2.43071 0.827953 -2.42481 0.842127 -2.42717 0.859843 -2.42008 0.874016 -2.41536 0.890552 -2.41063 0.904725 -2.40945 0.922442 -2.40118 0.935434 -0.747638 0.296457c-9.92954,3.90237 -16.1799,14.2512 -15.0791,25.1398 0.242126,2.39173 0.805512,4.64882 1.63465,6.74174 -2.27008,-4.69016 -6.0815,-8.72717 -11.4095,-11.2217 -6.71339,-3.04843 -14.1425,-2.87126 -20.6681,0.627166l-0.739371 0.401575 -2.28898 1.26142 -2.28189 1.27559 -2.28307 1.29331 -2.27599 1.30984 -2.26772 1.3252 -2.26181 1.34055 -2.24882 1.35118 -2.24882 1.37008 -2.24292 1.38898 -2.23347 1.40079 -2.2252 1.41614 -2.22047 1.43032 -2.21575 1.45039 -2.20748 1.46221 -2.19803 1.47992 -2.19213 1.49291 -2.1874 1.51181 -2.17914 1.52599 -2.16851 1.54134 -2.15906 1.55315 -2.15669 1.57323 -2.14488 1.58504 -2.14016 1.60276 -2.13425 1.61929 -2.12599 1.63583 -2.11536 1.64764 -2.10236 1.66181 -2.10236 1.67953 -2.0941 1.69843 -2.0811 1.70906 -2.0752 1.72677 -2.06575 1.74095 -2.05394 1.75394 -2.05158 1.77284 -2.04567 1.79291 -2.02914 1.80118 -2.02205 1.81654 -1.28386 1.16811z"/>
   <path id="_361794848" class="fil0" d="M1116.61 451.126c13.0536,0 23.6374,-10.8827 23.6374,-24.3071 0,-13.4232 -10.5839,-24.3059 -23.6374,-24.3059l-46.3796 -2.84882 -2.61614 -47.5347c0,-13.4244 -10.5827,-24.3071 -23.6362,-24.3071 -13.0536,0 -23.6362,10.8827 -23.6362,24.3071l0 74.6894c0,13.4244 10.5827,24.3071 23.6362,24.3071l72.6319 0z"/>
   <path id="_361788368" class="fil0" d="M933.802 1601.46c-13.0536,0 -23.6362,10.8827 -23.6362,24.3071 0,13.4232 10.5827,24.3059 23.6362,24.3059l48.9957 0 0 50.3835c0,13.4244 10.5839,24.3071 23.6374,24.3071 13.0536,0 23.6362,-10.8827 23.6362,-24.3071l0 -74.6894c0,-13.4244 -10.5827,-24.3071 -23.6362,-24.3071l-72.6331 0z"/>
   <path id="_361788656" class="fil1" d="M498.273 603.711l79.5627 190.078c15.9555,-19.689 34.1044,-39.5634 53.0528,-55.6595l37.7055 -32.028 -129.491 -209.888c-50.9835,54.1654 -47.7107,83.3516 -40.8296,107.497z"/>
   <path id="_361788944" class="fil1" d="M516.261 988.273c50.1378,12.9189 119.609,-30.8351 170.648,-76.1386 23.1213,-20.5205 42.4607,-41.3611 54.5067,-57.3945l30.4181 -40.4859 174.099 -231.727 30.8965 -41.1225c3.2504,-4.05709 5.96811,-8.40237 8.09528,-12.926 6.10158,-12.9709 7.35001,-27.404 2.37284,-40.6489 -13.0217,-4.67835 -26.9906,-2.93268 -39.3851,3.74055 -4.34528,2.3374 -8.49568,5.27953 -12.3449,8.76497l-38.8925 33.0378 -219.574 186.519 -36.1784 30.7323c-15.6366,13.2827 -36.117,34.5957 -56.0764,59.9138 -42.6083,54.0473 -82.852,126.346 -68.5855,177.735z"/>
   <path id="_361788824" class="fil1" d="M703.43 918.799l187.342 75.5788c23.6918,6.28465 52.1646,8.69646 103.149,-45.4701l-208.407 -126.359 -31.6299 42.0981c-14.4567,19.2414 -32.5099,37.7729 -50.4544,54.1524z"/>
   <path id="_361788536" class="fil1" d="M961.214 588.691l78.1879 31.5449c12.8823,3.41575 28.363,4.72678 56.0835,-24.7229l-96.952 -58.7835c-2.5689,5.18741 -5.77323,9.9756 -9.23387,14.5807l-28.0855 37.3807z"/>
   <path id="_361788224" class="fil1" d="M857.066 438.752l33.1193 79.1174 35.3481 -30.0272c4.37481,-3.71575 8.93977,-7.1752 13.9158,-9.98859l-60.1831 -97.5497c-27.7193,29.4508 -25.9406,45.3201 -22.2,58.4481z"/>
   <path id="_361788080" class="fil1" d="M1060.26 1105.09l208.407 126.359 31.6288 -42.0981c14.4579,-19.2414 32.511,-37.7729 50.4544,-54.1524l-187.342 -75.5788c-23.6906,-6.28465 -52.1646,-8.69646 -103.148,45.4701z"/>
   <path id="_361788032" class="fil1" d="M1066.89 1566.17c13.0205,4.67835 26.9894,2.93268 39.3851,-3.74055 4.3441,-2.3374 8.49449,-5.27953 12.3437,-8.76497l38.8937 -33.0378 219.574 -186.519 36.1784 -30.7323c15.6378,-13.2827 36.1158,-34.5957 56.0729,-59.9174 42.613,-54.0437 82.8556,-126.343 68.589,-177.731 -50.139,-12.9189 -119.609,30.8351 -170.649,76.1386 -23.1213,20.5205 -42.4595,41.3611 -54.5056,57.3945l-30.4181 40.4859 -174.101 231.727 -30.8965 41.1225c-3.24922,4.05709 -5.96811,8.40237 -8.0941,12.926 -6.10276,12.9709 -7.35001,27.404 -2.37284,40.6489z"/>
   <path id="_361787648" class="fil1" d="M1385.59 1347.9l129.49 209.888c50.9835,-54.1654 47.7118,-83.3516 40.8307,-107.497l-79.5674 -190.082c-15.9532,19.689 -34.1008,39.5681 -53.0481,55.663l-37.7055 32.028z"/>
   <path id="_361788056" class="fil1" d="M958.698 1458.48l96.9532 58.7835c2.5689,-5.18741 5.77323,-9.9756 9.23387,-14.5807l28.0843 -37.3807 -78.1879 -31.5449c-12.8811,-3.41575 -28.363,-4.72678 -56.0835,24.7229z"/>
   <path id="_361787480" class="fil1" d="M1114.73 1576.14l60.1819 97.5497c27.7193,-29.4508 25.9418,-45.3201 22.2,-58.4481l-33.1193 -79.1174 -35.3469 30.0272c-4.37481,3.71575 -8.94095,7.1752 -13.9158,9.98859z"/>
  </g>
 </g>
 <rect class="fil2" width="2048" height="2048"/>
</svg>
